#Comment line ignore any data following # character 
#Hierarchical Translation and Rotation (.htr) file 
[Header]	
#Header keywords are followed by a single value 
FileType HTR		#Single word string
DataType HTRS		#Translation followed by rotation and scale data
FileVersion 1		#integer
NumSegments 84		#integer
NumFrames 2		#integer
DataFrameRate 30		#integer, data frame rate in this file
EulerRotationOrder ZYX
CalibrationUnits mm
RotationUnits Degrees
GlobalAxisofGravity Y
BoneLengthAxis Y
ScaleFactor 1.00
[SegmentNames&Hierarchy]
#CHILD	PARENT
MASTER GLOBAL
root MASTER
chest root
L_mid_tent01 root
R_mid_tent01 root
spine01 root
Bip01_Neck chest
L_humerus chest
R_humerus chest
weapon_bone chest
Bip01_Head Bip01_Neck
eye_left_bone Bip01_Head
eye_right_bone Bip01_Head
L_forearm L_humerus
L_front_hand L_forearm
L_weapon_bone L_forearm
L_front_hand01_01 L_front_hand
L_front_hand02_01 L_front_hand
L_front_hand03_01 L_front_hand
L_front_hand01_02 L_front_hand01_01
L_front_hand02_02 L_front_hand02_01
L_front_hand03_02 L_front_hand03_01
R_forearm R_humerus
R_front_hand R_forearm
R_weapon_bone R_forearm
R_front_hand01_01 R_front_hand
R_front_hand02_01 R_front_hand
R_front_hand03_01 R_front_hand
R_front_hand01_02 R_front_hand01_01
R_front_hand02_02 R_front_hand02_01
R_front_hand03_02 R_front_hand03_01
null_rope01_connect L_mid_tent01
Rope1_Seg01 null_rope01_connect
Rope1_Seg02 Rope1_Seg01
Rope1_Seg03 Rope1_Seg02
Rope1_Seg04 Rope1_Seg03
Rope1_Seg05 Rope1_Seg04
Rope1_Seg06 Rope1_Seg05
Rope1_Seg07 Rope1_Seg06
Rope1_Seg09 Rope1_Seg07
L_mid_hand01 Rope1_Seg09
L_mid_hand02 Rope1_Seg09
L_mid_hand03 Rope1_Seg09
null_rope02_connect R_mid_tent01
Rope2_Seg01 null_rope02_connect
Rope2_Seg02 Rope2_Seg01
Rope2_Seg03 Rope2_Seg02
Rope2_Seg04 Rope2_Seg03
Rope2_Seg05 Rope2_Seg04
Rope2_Seg06 Rope2_Seg05
Rope2_Seg07 Rope2_Seg06
Rope2_Seg09 Rope2_Seg07
R_mid_hand01 Rope2_Seg09
R_mid_hand02 Rope2_Seg09
R_mid_hand03 Rope2_Seg09
spine02 spine01
spine03 spine02
pelvis spine03
null_rope03_connect pelvis
null_rope04_connect pelvis
Rope3_Seg01 null_rope03_connect
Rope3_Seg02 Rope3_Seg01
Rope3_Seg03 Rope3_Seg02
Rope3_Seg04 Rope3_Seg03
Rope3_Seg05 Rope3_Seg04
Rope3_Seg06 Rope3_Seg05
Rope3_Seg07 Rope3_Seg06
Rope3_Seg08 Rope3_Seg07
Rope3_Seg09 Rope3_Seg08
R_rear_hand01 Rope3_Seg09
R_rear_hand02 Rope3_Seg09
R_rear_hand03 Rope3_Seg09
Rope4_Seg01 null_rope04_connect
Rope4_Seg02 Rope4_Seg01
Rope4_Seg03 Rope4_Seg02
Rope4_Seg04 Rope4_Seg03
Rope4_Seg05 Rope4_Seg04
Rope4_Seg06 Rope4_Seg05
Rope4_Seg07 Rope4_Seg06
Rope4_Seg08 Rope4_Seg07
Rope4_Seg09 Rope4_Seg08
L_rear_hand01 Rope4_Seg09
L_rear_hand02 Rope4_Seg09
L_rear_hand03 Rope4_Seg09
[BasePosition]
#SegmentName Tx, Ty, Tz, Rx, Ry, Rz, BoneLength
MASTER 0.000000 0.000000 0.000000 -90.000000 0.000000 0.000000 10.000000 
root 0.000000 0.000000 0.000000 0.000000 0.000000 0.000000 10.000000 
chest 0.000000 0.000000 0.000000 0.000000 0.000000 0.000000 10.000000 
L_mid_tent01 0.000000 0.000000 0.000000 0.000000 0.000000 0.000000 10.000000 
R_mid_tent01 0.000000 0.000000 0.000000 0.000000 0.000000 0.000000 10.000000 
spine01 0.000000 0.000000 0.000000 0.000000 0.000000 0.000000 10.000000 
Bip01_Neck 0.000000 0.000000 0.000000 0.000000 0.000000 0.000000 10.000000 
L_humerus 0.000000 0.000000 0.000000 0.000000 0.000000 0.000000 10.000000 
R_humerus 0.000000 0.000000 0.000000 0.000000 0.000000 0.000000 10.000000 
weapon_bone 0.000000 0.000000 0.000000 0.000000 0.000000 0.000000 10.000000 
Bip01_Head 0.000000 0.000000 0.000000 0.000000 0.000000 0.000000 10.000000 
eye_left_bone 0.000000 0.000000 0.000000 0.000000 0.000000 0.000000 10.000000 
eye_right_bone 0.000000 0.000000 0.000000 0.000000 0.000000 0.000000 10.000000 
L_forearm 0.000000 0.000000 0.000000 0.000000 0.000000 0.000000 10.000000 
L_front_hand 0.000000 0.000000 0.000000 0.000000 0.000000 0.000000 10.000000 
L_weapon_bone 0.000000 0.000000 0.000000 0.000000 0.000000 0.000000 10.000000 
L_front_hand01_01 0.000000 0.000000 0.000000 0.000000 0.000000 0.000000 10.000000 
L_front_hand02_01 0.000000 0.000000 0.000000 0.000000 0.000000 0.000000 10.000000 
L_front_hand03_01 0.000000 0.000000 0.000000 0.000000 0.000000 0.000000 10.000000 
L_front_hand01_02 0.000000 0.000000 0.000000 0.000000 0.000000 0.000000 10.000000 
L_front_hand02_02 0.000000 0.000000 0.000000 0.000000 0.000000 0.000000 10.000000 
L_front_hand03_02 0.000000 0.000000 0.000000 0.000000 0.000000 0.000000 10.000000 
R_forearm 0.000000 0.000000 0.000000 0.000000 0.000000 0.000000 10.000000 
R_front_hand 0.000000 0.000000 0.000000 0.000000 0.000000 0.000000 10.000000 
R_weapon_bone 0.000000 0.000000 0.000000 0.000000 0.000000 0.000000 10.000000 
R_front_hand01_01 0.000000 0.000000 0.000000 0.000000 0.000000 0.000000 10.000000 
R_front_hand02_01 0.000000 0.000000 0.000000 0.000000 0.000000 0.000000 10.000000 
R_front_hand03_01 0.000000 0.000000 0.000000 0.000000 0.000000 0.000000 10.000000 
R_front_hand01_02 0.000000 0.000000 0.000000 0.000000 0.000000 0.000000 10.000000 
R_front_hand02_02 0.000000 0.000000 0.000000 0.000000 0.000000 0.000000 10.000000 
R_front_hand03_02 0.000000 0.000000 0.000000 0.000000 0.000000 0.000000 10.000000 
null_rope01_connect 0.000000 0.000000 0.000000 0.000000 0.000000 0.000000 10.000000 
Rope1_Seg01 0.000000 0.000000 0.000000 0.000000 0.000000 0.000000 10.000000 
Rope1_Seg02 0.000000 0.000000 0.000000 0.000000 0.000000 0.000000 10.000000 
Rope1_Seg03 0.000000 0.000000 0.000000 0.000000 0.000000 0.000000 10.000000 
Rope1_Seg04 0.000000 0.000000 0.000000 0.000000 0.000000 0.000000 10.000000 
Rope1_Seg05 0.000000 0.000000 0.000000 0.000000 0.000000 0.000000 10.000000 
Rope1_Seg06 0.000000 0.000000 0.000000 0.000000 0.000000 0.000000 10.000000 
Rope1_Seg07 0.000000 0.000000 0.000000 0.000000 0.000000 0.000000 10.000000 
Rope1_Seg09 0.000000 0.000000 0.000000 0.000000 0.000000 0.000000 10.000000 
L_mid_hand01 0.000000 0.000000 0.000000 0.000000 0.000000 0.000000 10.000000 
L_mid_hand02 0.000000 0.000000 0.000000 0.000000 0.000000 0.000000 10.000000 
L_mid_hand03 0.000000 0.000000 0.000000 0.000000 0.000000 0.000000 10.000000 
null_rope02_connect 0.000000 0.000000 0.000000 0.000000 0.000000 0.000000 10.000000 
Rope2_Seg01 0.000000 0.000000 0.000000 0.000000 0.000000 0.000000 10.000000 
Rope2_Seg02 0.000000 0.000000 0.000000 0.000000 0.000000 0.000000 10.000000 
Rope2_Seg03 0.000000 0.000000 0.000000 0.000000 0.000000 0.000000 10.000000 
Rope2_Seg04 0.000000 0.000000 0.000000 0.000000 0.000000 0.000000 10.000000 
Rope2_Seg05 0.000000 0.000000 0.000000 0.000000 0.000000 0.000000 10.000000 
Rope2_Seg06 0.000000 0.000000 0.000000 0.000000 0.000000 0.000000 10.000000 
Rope2_Seg07 0.000000 0.000000 0.000000 0.000000 0.000000 0.000000 10.000000 
Rope2_Seg09 0.000000 0.000000 0.000000 0.000000 0.000000 0.000000 10.000000 
R_mid_hand01 0.000000 0.000000 0.000000 0.000000 0.000000 0.000000 10.000000 
R_mid_hand02 0.000000 0.000000 0.000000 0.000000 0.000000 0.000000 10.000000 
R_mid_hand03 0.000000 0.000000 0.000000 0.000000 0.000000 0.000000 10.000000 
spine02 0.000000 0.000000 0.000000 0.000000 0.000000 0.000000 10.000000 
spine03 0.000000 0.000000 0.000000 0.000000 0.000000 0.000000 10.000000 
pelvis 0.000000 0.000000 0.000000 0.000000 0.000000 0.000000 10.000000 
null_rope03_connect 0.000000 0.000000 0.000000 0.000000 0.000000 0.000000 10.000000 
null_rope04_connect 0.000000 0.000000 0.000000 0.000000 0.000000 0.000000 10.000000 
Rope3_Seg01 0.000000 0.000000 0.000000 0.000000 0.000000 0.000000 10.000000 
Rope3_Seg02 0.000000 0.000000 0.000000 0.000000 0.000000 0.000000 10.000000 
Rope3_Seg03 0.000000 0.000000 0.000000 0.000000 0.000000 0.000000 10.000000 
Rope3_Seg04 0.000000 0.000000 0.000000 0.000000 0.000000 0.000000 10.000000 
Rope3_Seg05 0.000000 0.000000 0.000000 0.000000 0.000000 0.000000 10.000000 
Rope3_Seg06 0.000000 0.000000 0.000000 0.000000 0.000000 0.000000 10.000000 
Rope3_Seg07 0.000000 0.000000 0.000000 0.000000 0.000000 0.000000 10.000000 
Rope3_Seg08 0.000000 0.000000 0.000000 0.000000 0.000000 0.000000 10.000000 
Rope3_Seg09 0.000000 0.000000 0.000000 0.000000 0.000000 0.000000 10.000000 
R_rear_hand01 0.000000 0.000000 0.000000 0.000000 0.000000 0.000000 10.000000 
R_rear_hand02 0.000000 0.000000 0.000000 0.000000 0.000000 0.000000 10.000000 
R_rear_hand03 0.000000 0.000000 0.000000 0.000000 0.000000 0.000000 10.000000 
Rope4_Seg01 0.000000 0.000000 0.000000 0.000000 0.000000 0.000000 10.000000 
Rope4_Seg02 0.000000 0.000000 0.000000 0.000000 0.000000 0.000000 10.000000 
Rope4_Seg03 0.000000 0.000000 0.000000 0.000000 0.000000 0.000000 10.000000 
Rope4_Seg04 0.000000 0.000000 0.000000 0.000000 0.000000 0.000000 10.000000 
Rope4_Seg05 0.000000 0.000000 0.000000 0.000000 0.000000 0.000000 10.000000 
Rope4_Seg06 0.000000 0.000000 0.000000 0.000000 0.000000 0.000000 10.000000 
Rope4_Seg07 0.000000 0.000000 0.000000 0.000000 0.000000 0.000000 10.000000 
Rope4_Seg08 0.000000 0.000000 0.000000 0.000000 0.000000 0.000000 10.000000 
Rope4_Seg09 0.000000 0.000000 0.000000 0.000000 0.000000 0.000000 10.000000 
L_rear_hand01 0.000000 0.000000 0.000000 0.000000 0.000000 0.000000 10.000000 
L_rear_hand02 0.000000 0.000000 0.000000 0.000000 0.000000 0.000000 10.000000 
L_rear_hand03 0.000000 0.000000 0.000000 0.000000 0.000000 0.000000 10.000000 
#Beginning of Data. Separated by tabs
#Fr	Tx	Ty	Tz	Rx	Ry	Rz	SF
[MASTER]
13 0.000000 0.000000 0.000000 0.001660 0.001660 0.001660 0.000000
14 0.000000 0.000000 0.000000 0.001660 0.001660 0.001660 0.000000
[root]
13 -16.502298 -28.907282 1475.719482 -74.093384 -16.181856 -91.933159 1476.094849
14 -16.502298 -24.620005 1472.650146 -72.486404 -16.104227 -91.891464 1472.948364
[chest]
13 -84.512650 -34.090519 0.000000 8.292573 0.767906 145.677124 91.129311
14 -84.512650 -34.090519 0.000000 10.498766 1.079337 144.825607 91.129311
[L_mid_tent01]
13 27.299198 22.178591 -249.918518 -6.321275 36.132393 57.842682 252.381470
14 27.299191 22.178631 -249.918518 -12.960361 34.528282 46.419113 252.381470
[R_mid_tent01]
13 23.228794 24.509907 226.238495 171.435272 -30.425932 63.232323 228.744751
14 23.228794 24.509907 226.238495 173.895706 -30.891874 58.389259 228.744751
[spine01]
13 -0.361383 -0.195265 0.000000 0.001915 0.001358 19.322407 0.410763
14 -0.361383 -0.195265 0.000000 0.001918 0.001354 19.532394 0.410763
[Bip01_Neck]
13 165.484543 71.581718 0.000119 176.643677 -1.657967 43.431911 180.302734
14 165.484543 71.581718 0.000119 176.643677 -1.657967 43.431911 180.302734
[L_humerus]
13 -13.983130 -135.272980 -120.471481 169.229874 39.564266 -97.084518 181.680161
14 -13.983130 -135.272980 -120.471481 167.286148 47.935902 -99.681793 181.680161
[R_humerus]
13 -13.983309 -135.273102 125.287651 -171.298325 -23.560865 -93.119751 184.909012
14 -13.983309 -135.273102 125.287651 -171.162277 -35.376228 -93.511719 184.909012
[weapon_bone]
13 235.964890 -300.705902 0.000000 0.000000 -89.951546 -128.212341 382.234833
14 235.964890 -300.705902 0.000000 0.000000 -89.951546 -128.212341 382.234833
[Bip01_Head]
13 213.444229 185.715561 11.776934 4.962491 2.797846 -43.898746 283.173798
14 213.444214 185.715561 11.776934 4.962490 2.797846 -43.898743 283.173798
[eye_left_bone]
13 -24.626970 125.451866 -64.772606 0.000000 -90.000000 -99.840431 143.318359
14 -24.626970 125.451866 -64.772606 0.000000 -90.000000 -99.840431 143.318359
[eye_right_bone]
13 -24.626970 125.451866 64.327362 0.000000 -89.965736 80.156380 143.117676
14 -24.626970 125.451866 64.327362 0.000000 -89.965736 80.156380 143.117676
[L_forearm]
13 322.776093 0.000000 -0.000119 0.000320 -0.002325 -105.649017 322.776093
14 322.776093 0.000000 -0.000119 0.000212 -0.002338 -100.346413 322.776093
[L_front_hand]
13 241.149185 -0.042021 -3.300071 -112.135269 -1.835529 -27.421555 241.171753
14 241.149185 -0.042021 -3.300071 -16.659449 -1.837777 -27.422724 241.171753
[L_weapon_bone]
13 156.183838 0.000000 0.000000 0.000014 0.000007 0.000001 156.183838
14 156.183838 0.000000 0.000000 0.000014 0.000007 0.000001 156.183838
[L_front_hand01_01]
13 86.095154 20.947098 -0.655860 -0.366594 -0.477154 75.385574 88.609184
14 86.095154 20.947098 -0.655860 -0.366594 -0.477154 75.385574 88.609184
[L_front_hand02_01]
13 86.935165 -11.437475 24.513514 154.399811 -59.883842 -61.369587 91.046425
14 86.935165 -11.437475 24.513514 154.399796 -59.883835 -61.369587 91.046425
[L_front_hand03_01]
13 86.637497 -14.123976 -20.424902 -153.913864 58.118130 -62.702873 90.126129
14 86.637497 -14.123976 -20.424902 -153.913849 58.118122 -62.702866 90.126129
[L_front_hand01_02]
13 71.020905 -0.000179 0.000030 0.000334 -0.002323 -106.379684 71.020905
14 71.020905 -0.000179 0.000030 0.000334 -0.002323 -106.379684 71.020905
[L_front_hand02_02]
13 71.020927 -0.000119 0.000060 0.000334 -0.002323 -106.379684 71.020927
14 71.020927 -0.000119 0.000060 0.000334 -0.002323 -106.379684 71.020927
[L_front_hand03_02]
13 71.020905 -0.000060 0.000060 0.000334 -0.002323 -106.379684 71.020905
14 71.020905 -0.000060 0.000060 0.000334 -0.002323 -106.379684 71.020905
[R_forearm]
13 322.776428 -0.000060 0.000030 0.213331 -0.005701 -90.076721 322.776428
14 322.776428 -0.000060 0.000030 0.208110 -0.032624 -82.333397 322.776428
[R_front_hand]
13 238.847015 -0.006795 2.210259 -38.867191 -10.646420 -26.315115 238.857239
14 238.847015 -0.006795 2.210259 -96.070747 -10.645946 -26.311598 238.857239
[R_weapon_bone]
13 155.664093 0.002503 -0.000030 0.003487 0.001180 -90.988930 155.664078
14 155.664093 0.002503 -0.000030 0.003487 0.001180 -90.988930 155.664078
[R_front_hand01_01]
13 87.624611 14.231146 22.918642 -154.633499 -59.950642 61.746071 91.683487
14 87.624611 14.231146 22.918642 -154.633499 -59.950619 61.746044 91.683487
[R_front_hand02_01]
13 89.356956 14.367283 -19.491137 154.602676 58.302864 63.744389 92.579636
14 89.356956 14.367283 -19.491137 154.602661 58.302849 63.744389 92.579636
[R_front_hand03_01]
13 87.286232 -22.307278 -0.143439 0.162155 -0.423168 -75.767921 90.091743
14 87.286232 -22.307278 -0.143439 0.162155 -0.423168 -75.767921 90.091743
[R_front_hand01_02]
13 71.020905 0.000060 0.000119 0.002323 -0.000334 106.381721 71.020905
14 71.020905 0.000060 0.000119 0.002323 -0.000334 106.381714 71.020905
[R_front_hand02_02]
13 71.020844 -0.000030 -0.000119 0.002323 -0.000334 106.381721 71.020836
14 71.020844 -0.000030 -0.000119 0.002323 -0.000334 106.381714 71.020836
[R_front_hand03_02]
13 71.020905 0.000000 0.000030 0.002323 -0.000334 106.381721 71.020905
14 71.020905 0.000000 0.000030 0.002323 -0.000334 106.381714 71.020905
[null_rope01_connect]
13 328.732483 0.000000 -0.000238 -126.192093 -65.994873 170.361130 328.732483
14 328.732483 0.000000 -0.000238 -123.953590 -67.299622 177.342758 328.732483
[Rope1_Seg01]
13 -0.000020 -0.000040 0.000079 -46.088947 24.698845 -117.114441 0.000091
14 -0.000018 -0.000037 0.000073 -50.215908 27.988777 -102.366508 0.000084
[Rope1_Seg02]
13 139.999863 -0.000179 0.000000 170.270889 8.629380 -12.747081 139.999863
14 139.999863 -0.000179 0.000000 69.399757 7.528560 -13.540022 139.999863
[Rope1_Seg03]
13 139.999924 0.000060 -0.000060 2.887472 -11.538957 10.191443 139.999924
14 139.999924 0.000060 -0.000060 85.590248 -10.080074 -11.889857 139.999924
[Rope1_Seg04]
13 139.999924 -0.000060 -0.000119 -8.926704 -1.638672 11.524473 139.999924
14 139.999924 -0.000060 -0.000119 1.957440 -9.580144 8.781440 139.999924
[Rope1_Seg05]
13 139.999832 0.000119 -0.000060 -2.402244 -0.443270 3.563332 139.999832
14 139.999832 0.000119 -0.000060 0.273837 -2.383575 2.375531 139.999832
[Rope1_Seg06]
13 139.999954 0.000119 -0.000060 -0.779037 -0.599914 1.731911 139.999954
14 139.999954 0.000119 -0.000060 0.170678 -1.281240 1.251113 139.999954
[Rope1_Seg07]
13 139.999985 0.000060 0.000000 -0.442173 -0.389879 1.071463 139.999985
14 139.999985 0.000060 0.000000 0.104970 -0.800288 0.787319 139.999985
[Rope1_Seg09]
13 121.602913 0.000119 -0.000089 -89.793175 -1.359789 0.847147 121.602913
14 121.602913 0.000119 -0.000089 -89.793175 -1.359789 0.847147 121.602913
[L_mid_hand01]
13 103.859421 1.038730 8.195221 111.216125 -46.770248 -16.325296 104.187431
14 103.859421 1.038730 8.195221 110.016708 -43.583397 -14.630752 104.187431
[L_mid_hand02]
13 105.572853 -4.139662 -10.864139 -150.384232 34.904903 -44.592545 106.211075
14 105.572853 -4.139662 -10.864139 -148.402466 33.171719 -41.059582 106.211075
[L_mid_hand03]
13 104.641464 17.579376 -3.913581 -12.781254 13.855400 50.452682 106.179977
14 104.641464 17.579376 -3.913581 -13.575851 13.082142 47.042408 106.179977
[null_rope02_connect]
13 328.732849 0.000179 -0.000119 -134.321182 47.113319 -3.319250 328.732849
14 328.732849 0.000179 -0.000119 -135.145355 45.752327 -8.614541 328.732849
[Rope2_Seg01]
13 0.000095 0.000153 0.000037 74.235184 -4.698842 -71.930527 0.000184
14 0.000095 0.000153 0.000040 72.991829 -4.944903 -70.876823 0.000184
[Rope2_Seg02]
13 139.999741 -0.000060 -0.000119 -0.927291 4.729273 -1.516744 139.999756
14 139.999741 -0.000060 -0.000119 -0.887932 4.379252 -1.388468 139.999756
[Rope2_Seg03]
13 140.000107 0.000030 0.000000 0.037076 3.465034 -1.610302 140.000107
14 140.000107 0.000030 0.000000 0.277854 2.586994 -1.352510 140.000107
[Rope2_Seg04]
13 139.999802 0.000000 -0.000060 2.469155 1.235760 -1.935813 139.999802
14 139.999802 0.000000 -0.000060 1.107718 1.751658 -1.425822 139.999802
[Rope2_Seg05]
13 139.999985 -0.000060 0.000119 -22.655972 15.276268 -0.985088 139.999985
14 139.999985 -0.000060 0.000119 -18.286592 13.890002 -0.952965 139.999985
[Rope2_Seg06]
13 139.999893 -0.000030 -0.000119 -68.951904 12.960411 5.234641 139.999893
14 139.999893 -0.000030 -0.000119 -48.325657 10.699818 3.094782 139.999893
[Rope2_Seg07]
13 139.999893 0.000060 -0.000060 -23.026243 0.063444 6.103888 139.999893
14 139.999893 0.000060 -0.000060 -28.801369 2.304956 4.569700 139.999893
[Rope2_Seg09]
13 121.338966 0.000089 -0.000060 33.793236 -1.359788 -0.847141 121.338966
14 121.338966 0.000089 -0.000060 33.793236 -1.359788 -0.847141 121.338966
[R_mid_hand01]
13 104.680779 11.144459 -10.335981 -27.387484 40.402237 54.098232 105.778534
14 104.680779 11.144459 -10.335981 -29.481638 39.038586 50.818604 105.778534
[R_mid_hand02]
13 104.070427 2.443552 8.231699 62.946606 -56.952812 23.709986 104.424065
14 104.070427 2.443552 8.231699 64.792801 -54.379654 21.475653 104.424065
[R_mid_hand03]
13 106.028137 -11.221827 -5.996406 -173.630432 14.503002 -63.260223 106.788818
14 106.028137 -11.221827 -5.996406 -172.901611 14.168233 -60.324341 106.788818
[spine02]
13 129.756927 0.001550 0.000119 -0.408111 -4.368111 -1.715098 129.756927
14 129.756927 0.001550 0.000119 -0.347376 -4.345963 -2.587194 129.756927
[spine03]
13 78.613976 0.083539 -4.898964 1.446755 4.644768 9.523501 78.766510
14 78.613983 0.083392 -4.898967 1.483779 4.589422 10.053125 78.766518
[pelvis]
13 169.435242 0.051022 0.000000 0.006596 0.056063 -0.018117 169.435257
14 169.435242 0.051022 0.000000 0.004472 0.036240 1.072465 169.435257
[null_rope03_connect]
13 -1.257226 -2.466202 137.391083 7.438250 -74.362251 71.886284 137.418976
14 -1.257226 -2.466202 137.391083 8.438654 -72.690376 69.854462 137.418976
[null_rope04_connect]
13 -1.259640 -2.480268 -137.844437 7.438250 -74.362251 71.886284 137.872513
14 -1.259640 -2.480268 -137.844437 8.438654 -72.690376 69.854462 137.872513
[Rope3_Seg01]
13 -0.000034 0.000000 -0.000073 -130.561264 -0.624573 -69.781960 0.000081
14 -0.000033 0.000000 -0.000079 -130.606796 -0.810984 -70.597130 0.000086
[Rope3_Seg02]
13 139.999924 -0.000119 0.000060 1.343337 -9.023460 -11.778837 139.999924
14 139.999924 -0.000119 0.000060 1.400064 -8.907300 -8.991574 139.999924
[Rope3_Seg03]
13 139.999924 -0.000119 0.000119 0.343319 -7.220376 -12.712289 139.999924
14 139.999924 -0.000119 0.000119 0.851237 -7.543451 -11.563087 139.999924
[Rope3_Seg04]
13 139.999924 0.000119 0.000000 -0.845855 -5.114876 -10.152724 139.999924
14 139.999924 0.000119 0.000000 0.892631 -6.218379 -8.613805 139.999924
[Rope3_Seg05]
13 139.999924 -0.000238 0.000060 8.922613 -6.976632 3.950578 139.999924
14 139.999924 -0.000238 0.000060 8.601204 -6.130790 10.558430 139.999924
[Rope3_Seg06]
13 139.999893 -0.000119 -0.000060 10.567288 -6.222229 11.180092 139.999893
14 139.999893 -0.000119 -0.000060 5.706603 -2.525771 12.671239 139.999893
[Rope3_Seg07]
13 139.999771 0.000060 -0.000119 5.399458 -3.463285 6.067849 139.999771
14 139.999771 0.000060 -0.000119 2.487462 -1.440837 5.528309 139.999771
[Rope3_Seg08]
13 139.999985 -0.000060 0.000000 3.357424 -1.941251 4.122239 139.999985
14 139.999985 -0.000060 0.000000 1.577722 -0.738563 3.444500 139.999985
[Rope3_Seg09]
13 90.185997 -0.000179 -0.000060 89.793228 -1.359877 -0.847183 90.185997
14 90.185997 -0.000179 -0.000060 89.793228 -1.359877 -0.847183 90.185997
[R_rear_hand01]
13 103.366196 -6.073594 -10.757982 -170.781250 22.977592 -56.830051 104.101845
14 103.366196 -6.073594 -10.757982 -169.405167 22.402502 -53.260670 104.101845
[R_rear_hand02]
13 100.509819 12.039542 -7.992327 -23.185038 31.960989 54.046932 101.543350
14 100.509819 12.039542 -7.992327 -25.038759 30.595238 50.476681 101.543350
[R_rear_hand03]
13 101.539970 5.215704 5.435467 79.639069 -56.567928 12.539778 101.819031
14 101.539970 5.215704 5.435467 80.458862 -53.275688 11.535583 101.819031
[Rope4_Seg01]
13 -0.000034 0.000000 -0.000073 50.251110 -9.959616 -109.459770 0.000081
14 -0.000033 0.000000 -0.000079 49.238079 -4.141445 -105.993790 0.000086
[Rope4_Seg02]
13 139.999985 0.000060 0.000119 -1.272447 -12.499653 -15.505908 139.999985
14 139.999985 0.000060 0.000119 -0.248690 -11.218401 -12.927122 139.999985
[Rope4_Seg03]
13 139.999924 0.000000 -0.000238 -4.170064 -12.321479 -13.755801 139.999924
14 139.999924 0.000000 -0.000238 -1.674706 -11.295143 -10.883978 139.999924
[Rope4_Seg04]
13 139.999985 0.000000 0.000119 -5.174615 -8.008048 -8.677590 139.999985
14 139.999985 0.000000 0.000119 -2.090052 -8.271913 -7.067917 139.999985
[Rope4_Seg05]
13 139.999802 -0.000060 -0.000119 -21.696432 -0.192565 -14.736717 139.999802
14 139.999802 -0.000060 -0.000119 -15.080085 -1.939592 -14.737926 139.999802
[Rope4_Seg06]
13 139.999924 0.000000 0.000060 -31.906614 11.682479 -19.851440 139.999924
14 139.999924 0.000000 0.000060 -27.804293 6.454564 -20.878902 139.999924
[Rope4_Seg07]
13 139.999802 0.000000 0.000000 -12.248482 12.241118 -8.078694 139.999802
14 139.999802 0.000000 0.000000 -13.996180 8.532335 -10.506581 139.999802
[Rope4_Seg08]
13 139.999924 0.000000 0.000119 -5.970398 7.376634 -3.083482 139.999924
14 139.999924 0.000000 0.000119 -7.674531 6.051897 -4.738955 139.999924
[Rope4_Seg09]
13 90.185791 0.000060 0.000060 -135.617828 2.228885 0.850567 90.185791
14 90.185791 0.000060 0.000060 -135.617828 2.228885 0.850567 90.185791
[L_rear_hand01]
13 101.696655 -8.392275 -7.654577 -31.684452 -23.583008 144.025742 102.329041
14 101.696655 -8.392275 -7.654577 -31.553307 -23.761133 143.711090 102.329041
[L_rear_hand02]
13 102.726799 -1.568258 5.773216 82.701553 38.753956 171.553619 102.900848
14 102.726799 -1.568258 5.773216 82.664520 39.085831 171.495636 102.900848
[L_rear_hand03]
13 104.552910 9.721220 -10.420293 -163.975403 -19.004421 -142.009338 105.519653
14 104.552910 9.721220 -10.420293 -164.089569 -19.094522 -141.662735 105.519653
